<svg width="142" height="34" viewBox="0 0 142 34" fill="none" xmlns="http://www.w3.org/2000/svg">
<g clip-path="url(#clip0_2_348)">
<path d="M43.4451 23.3339H53.3565V20.3486H46.9678V9.1037H43.4451V23.3339Z" fill="#080C2E"/>
<path d="M59.2285 21.3437C57.8155 21.3437 57.0791 20.1098 57.0791 18.2589C57.0791 16.4079 57.8155 15.1541 59.2285 15.1541C60.6416 15.1541 61.3979 16.4079 61.3979 18.2589C61.3979 20.1098 60.6416 21.3437 59.2285 21.3437ZM59.2484 23.6524C62.5323 23.6524 64.6818 21.3238 64.6818 18.2589C64.6818 15.1939 62.5323 12.8653 59.2484 12.8653C55.9844 12.8653 53.7952 15.1939 53.7952 18.2589C53.7952 21.3238 55.9844 23.6524 59.2484 23.6524Z" fill="#080C2E"/>
<path d="M70.366 26.8567C71.8786 26.8567 73.2121 26.5183 74.1077 25.7222C74.9237 24.9858 75.4611 23.8713 75.4611 22.3388V13.1439H72.3563V14.2385H72.3165C71.7194 13.3827 70.8039 12.8453 69.4505 12.8453C66.9229 12.8453 65.1715 14.955 65.1715 17.9404C65.1715 21.065 67.3011 22.7767 69.5899 22.7767C70.8238 22.7767 71.6 22.2791 72.1971 21.6024H72.2767V22.6174C72.2767 23.8514 71.6995 24.5679 70.3262 24.5679C69.2515 24.5679 68.7141 24.1101 68.535 23.5728H65.3904C65.7089 25.7023 67.5598 26.8567 70.366 26.8567ZM70.3461 20.3685C69.1321 20.3685 68.336 19.3733 68.336 17.8408C68.336 16.2885 69.1321 15.2933 70.3461 15.2933C71.6995 15.2933 72.416 16.4477 72.416 17.8209C72.416 19.2539 71.7592 20.3685 70.3461 20.3685Z" fill="#080C2E"/>
<path d="M81.845 21.3437C80.4319 21.3437 79.6955 20.1098 79.6955 18.2589C79.6955 16.4079 80.4319 15.1541 81.845 15.1541C83.2581 15.1541 84.0144 16.4079 84.0144 18.2589C84.0144 20.1098 83.2581 21.3437 81.845 21.3437ZM81.8649 23.6524C85.1488 23.6524 87.2983 21.3238 87.2983 18.2589C87.2983 15.1939 85.1488 12.8653 81.8649 12.8653C78.6009 12.8653 76.4116 15.1939 76.4116 18.2589C76.4116 21.3238 78.6009 23.6524 81.8649 23.6524Z" fill="#080C2E"/>
<path d="M88.2454 23.3339H91.4895V13.1439H88.2454V23.3339ZM88.2454 11.7308H91.4895V9.1037H88.2454V11.7308Z" fill="#080C2E"/>
<path d="M92.8976 26.6974H96.1417V22.2791H96.1815C96.8184 23.1349 97.7538 23.6524 99.0673 23.6524C101.734 23.6524 103.506 21.5427 103.506 18.2389C103.506 15.1739 101.854 12.8453 99.1469 12.8453C97.7538 12.8453 96.7587 13.4623 96.0621 14.3778H96.0024V13.1439H92.8976V26.6974ZM98.2314 21.1447C96.8383 21.1447 96.0422 20.0102 96.0422 18.3583C96.0422 16.7064 96.7587 15.4526 98.1717 15.4526C99.5649 15.4526 100.222 16.6069 100.222 18.3583C100.222 20.0898 99.4654 21.1447 98.2314 21.1447Z" fill="#080C2E"/>
<path d="M108.787 23.6524C111.454 23.6524 113.424 22.498 113.424 20.2689C113.424 17.6617 111.315 17.204 109.524 16.9054C108.23 16.6666 107.076 16.5671 107.076 15.8506C107.076 15.2137 107.692 14.9152 108.489 14.9152C109.384 14.9152 110.001 15.1938 110.121 16.1093H113.106C112.947 14.0992 111.394 12.8453 108.508 12.8453C106.1 12.8453 104.11 13.9599 104.11 16.1093C104.11 18.4976 106.001 18.9753 107.772 19.2738C109.125 19.5127 110.359 19.6122 110.359 20.5277C110.359 21.1845 109.742 21.5427 108.767 21.5427C107.692 21.5427 107.016 21.0451 106.896 20.0301H103.831C103.931 22.2791 105.802 23.6524 108.787 23.6524Z" fill="#080C2E"/>
<path d="M117.831 23.6325C119.244 23.6325 120.14 23.0752 120.876 22.0801H120.936V23.334H124.041V13.1439H120.797V18.836C120.797 20.0501 120.12 20.886 119.005 20.886C117.97 20.886 117.473 20.269 117.473 19.1545V13.1439H114.249V19.8311C114.249 22.1 115.483 23.6325 117.831 23.6325Z" fill="#080C2E"/>
<path d="M125.451 23.3339H128.695V17.6219C128.695 16.4079 129.292 15.5521 130.307 15.5521C131.283 15.5521 131.74 16.1889 131.74 17.2836V23.3339H134.985V17.6219C134.985 16.4079 135.562 15.5521 136.597 15.5521C137.572 15.5521 138.03 16.1889 138.03 17.2836V23.3339H141.274V16.7064C141.274 14.4176 140.119 12.8453 137.811 12.8453C136.497 12.8453 135.403 13.4026 134.606 14.6366H134.567C134.049 13.5419 133.034 12.8453 131.701 12.8453C130.228 12.8453 129.253 13.5419 128.616 14.5968H128.556V13.1439H125.451V23.3339Z" fill="#080C2E"/>
<path fill-rule="evenodd" clip-rule="evenodd" d="M17.5917 33.2851C26.7516 33.2851 34.1771 25.8596 34.1771 16.6998C34.1771 7.53997 26.7516 0.114441 17.5917 0.114441C8.43185 0.114441 1.00635 7.53997 1.00635 16.6998C1.00635 25.8596 8.43185 33.2851 17.5917 33.2851ZM22.7658 7.8406C23.0176 6.94599 22.1495 6.41699 21.3566 6.98186L10.2884 14.8668C9.42858 15.4793 9.56383 16.6998 10.4916 16.6998H13.4062V16.6772H19.0865L14.4581 18.3103L12.4177 25.559C12.1658 26.4536 13.0339 26.9826 13.8269 26.4177L24.895 18.5329C25.7549 17.9203 25.6195 16.6998 24.6918 16.6998H20.272L22.7658 7.8406Z" fill="#080C2E"/>
</g>
<defs>
<clipPath id="clip0_2_348">
<rect width="140.976" height="34" fill="white" transform="translate(0.439087)"/>
</clipPath>
</defs>
</svg>
