<svg width="140" height="34" viewBox="0 0 140 34" fill="none" xmlns="http://www.w3.org/2000/svg">
<g clip-path="url(#clip0_2_337)">
<path d="M41.3035 23.8776H51.2149V20.8923H44.8262V9.6474H41.3035V23.8776Z" fill="#080C2E"/>
<path d="M57.0872 21.8874C55.6741 21.8874 54.9377 20.6534 54.9377 18.8025C54.9377 16.9516 55.6741 15.6977 57.0872 15.6977C58.5002 15.6977 59.2565 16.9516 59.2565 18.8025C59.2565 20.6534 58.5002 21.8874 57.0872 21.8874ZM57.1071 24.1961C60.391 24.1961 62.5404 21.8675 62.5404 18.8025C62.5404 15.7375 60.391 13.4089 57.1071 13.4089C53.8431 13.4089 51.6538 15.7375 51.6538 18.8025C51.6538 21.8675 53.8431 24.1961 57.1071 24.1961Z" fill="#080C2E"/>
<path d="M68.2246 27.4004C69.7372 27.4004 71.0706 27.062 71.9662 26.2659C72.7822 25.5295 73.3196 24.415 73.3196 22.8825V13.6876H70.2148V14.7822H70.175C69.5779 13.9264 68.6624 13.389 67.3091 13.389C64.7814 13.389 63.03 15.4987 63.03 18.4841C63.03 21.6087 65.1596 23.3204 67.4484 23.3204C68.6823 23.3204 69.4585 22.8228 70.0556 22.1461H70.1352V23.1611C70.1352 24.3951 69.558 25.1116 68.1848 25.1116C67.11 25.1116 66.5727 24.6538 66.3935 24.1165H63.249C63.5674 26.246 65.4183 27.4004 68.2246 27.4004ZM68.2047 20.9122C66.9906 20.9122 66.1945 19.917 66.1945 18.3846C66.1945 16.8322 66.9906 15.837 68.2047 15.837C69.558 15.837 70.2745 16.9914 70.2745 18.3646C70.2745 19.7976 69.6177 20.9122 68.2047 20.9122Z" fill="#080C2E"/>
<path d="M79.7036 21.8874C78.2906 21.8874 77.5542 20.6534 77.5542 18.8025C77.5542 16.9516 78.2906 15.6977 79.7036 15.6977C81.1167 15.6977 81.873 16.9516 81.873 18.8025C81.873 20.6534 81.1167 21.8874 79.7036 21.8874ZM79.7235 24.1961C83.0074 24.1961 85.1571 21.8675 85.1571 18.8025C85.1571 15.7375 83.0074 13.4089 79.7235 13.4089C76.4595 13.4089 74.2703 15.7375 74.2703 18.8025C74.2703 21.8675 76.4595 24.1961 79.7235 24.1961Z" fill="#080C2E"/>
<path d="M86.1041 23.8776H89.3482V13.6876H86.1041V23.8776ZM86.1041 12.2745H89.3482V9.6474H86.1041V12.2745Z" fill="#080C2E"/>
<path d="M90.7555 27.2411H93.9996V22.8228H94.0394C94.6763 23.6786 95.6117 24.1961 96.9253 24.1961C99.5922 24.1961 101.363 22.0864 101.363 18.7826C101.363 15.7176 99.7116 13.389 97.0049 13.389C95.6117 13.389 94.6166 14.006 93.92 14.9215H93.8603V13.6876H90.7555V27.2411ZM96.0893 21.6884C94.6962 21.6884 93.9001 20.5539 93.9001 18.902C93.9001 17.2501 94.6166 15.9963 96.0296 15.9963C97.4228 15.9963 98.0796 17.1506 98.0796 18.902C98.0796 20.6335 97.3233 21.6884 96.0893 21.6884Z" fill="#080C2E"/>
<path d="M106.646 24.1961C109.313 24.1961 111.283 23.0417 111.283 20.8126C111.283 18.2054 109.174 17.7477 107.382 17.4491C106.089 17.2103 104.934 17.1108 104.934 16.3943C104.934 15.7574 105.551 15.4589 106.347 15.4589C107.243 15.4589 107.86 15.7375 107.979 16.653H110.965C110.806 14.6429 109.253 13.389 106.367 13.389C103.959 13.389 101.969 14.5036 101.969 16.653C101.969 19.0413 103.86 19.519 105.631 19.8175C106.984 20.0564 108.218 20.1559 108.218 21.0714C108.218 21.7282 107.601 22.0864 106.626 22.0864C105.551 22.0864 104.875 21.5888 104.755 20.5738H101.69C101.79 22.8228 103.661 24.1961 106.646 24.1961Z" fill="#080C2E"/>
<path d="M115.689 24.1761C117.102 24.1761 117.998 23.6189 118.734 22.6238H118.794V23.8776H121.899V13.6876H118.655V19.3797C118.655 20.5937 117.978 21.4296 116.863 21.4296C115.828 21.4296 115.331 20.8126 115.331 19.6981V13.6876H112.107V20.3748C112.107 22.6437 113.341 24.1761 115.689 24.1761Z" fill="#080C2E"/>
<path d="M123.31 23.8776H126.554V18.1656C126.554 16.9516 127.151 16.0958 128.166 16.0958C129.141 16.0958 129.599 16.7326 129.599 17.8273V23.8776H132.843V18.1656C132.843 16.9516 133.421 16.0958 134.455 16.0958C135.431 16.0958 135.888 16.7326 135.888 17.8273V23.8776H139.132V17.2501C139.132 14.9613 137.978 13.389 135.669 13.389C134.356 13.389 133.261 13.9463 132.465 15.1803H132.425C131.908 14.0856 130.893 13.389 129.559 13.389C128.087 13.389 127.111 14.0856 126.475 15.1405H126.415V13.6876H123.31V23.8776Z" fill="#080C2E"/>
<path fill-rule="evenodd" clip-rule="evenodd" d="M8.1522 3.22706C6.9658 4.05663 5.89297 5.03745 4.96166 6.14155C8.76743 5.78823 13.6025 6.36516 19.216 9.17193C25.2104 12.1691 30.0374 12.2704 33.3968 11.6224C33.092 10.6995 32.7082 9.81254 32.2537 8.96934C28.4081 9.37494 23.4781 8.83807 17.7326 5.9654C14.0841 4.14118 10.8681 3.38972 8.1522 3.22706ZM30.0073 5.77191C26.9704 2.37883 22.5571 0.243469 17.645 0.243469C16.2025 0.243469 14.8029 0.427656 13.4686 0.77377C15.2757 1.26686 17.1955 1.98824 19.216 2.99852C23.4225 5.10176 27.0542 5.77896 30.0073 5.77191ZM34.115 14.8619C30.0566 15.6633 24.4523 15.4987 17.7326 12.1388C11.4504 8.9977 6.45029 9.03726 3.07805 9.78667C2.90399 9.82531 2.73402 9.86595 2.56816 9.90824C2.12665 10.8684 1.77422 11.8782 1.52135 12.9267C1.79143 12.8545 2.07051 12.786 2.35846 12.7219C6.44958 11.8128 12.23 11.8523 19.216 15.3453C25.4983 18.4864 30.4984 18.4469 33.8707 17.6975C33.9862 17.6718 34.1 17.6453 34.212 17.6179C34.2243 17.3565 34.2304 17.0933 34.2304 16.8288C34.2304 16.1633 34.1912 15.507 34.115 14.8619ZM33.6705 21.118C29.6514 21.8207 24.2103 21.551 17.7326 18.3122C11.4504 15.1711 6.45029 15.2107 3.07805 15.9601C2.32951 16.1263 1.65613 16.3289 1.06212 16.5428C1.0605 16.6379 1.05969 16.7333 1.05969 16.8288C1.05969 25.9887 8.4852 33.4142 17.645 33.4142C25.3216 33.4142 31.7802 28.1988 33.6705 21.118Z" fill="#080C2E"/>
</g>
<defs>
<clipPath id="clip0_2_337">
<rect width="138.488" height="34" fill="white" transform="translate(0.975586)"/>
</clipPath>
</defs>
</svg>
