<svg width="155" height="34" viewBox="0 0 155 34" fill="none" xmlns="http://www.w3.org/2000/svg">
<path d="M46.085 22.6914C46.085 23.4336 45.9326 24.0039 45.6279 24.4023C45.3311 24.8008 44.835 25 44.1397 25C43.4834 25 43.0186 24.8008 42.7451 24.4023C42.4795 24.0039 42.3467 23.4336 42.3467 22.6914V10.3047C42.3467 9.5625 42.4795 8.99219 42.7451 8.59375C43.0186 8.19531 43.4834 7.99609 44.1397 7.99609C44.835 7.99609 45.3311 8.19531 45.6279 8.59375C45.9326 8.99219 46.085 9.5625 46.085 10.3047V22.6914Z" fill="#080C2E"/>
<path d="M47.2198 19.0938C47.2198 18.2656 47.3526 17.4844 47.6183 16.75C47.8917 16.0078 48.2979 15.3594 48.837 14.8047C49.3839 14.25 50.0636 13.8086 50.8761 13.4805C51.6964 13.1523 52.6573 12.9883 53.7589 12.9883C54.8136 12.9883 55.7472 13.1406 56.5597 13.4453C57.3722 13.75 58.0558 14.1758 58.6104 14.7227C59.1651 15.2617 59.587 15.9062 59.8761 16.6562C60.1651 17.3984 60.3097 18.2109 60.3097 19.0938C60.3097 19.9141 60.1729 20.6914 59.8995 21.4258C59.6261 22.1523 59.2159 22.793 58.669 23.3477C58.1222 23.8945 57.4386 24.332 56.6183 24.6602C55.7979 24.9805 54.8448 25.1406 53.7589 25.1406C52.6886 25.1406 51.7433 24.9883 50.9229 24.6836C50.1104 24.3711 49.4269 23.9453 48.8722 23.4062C48.3253 22.8594 47.9112 22.2188 47.63 21.4844C47.3565 20.7422 47.2198 19.9453 47.2198 19.0938ZM51.1222 19.0938C51.1222 19.6094 51.169 20.1016 51.2628 20.5703C51.3565 21.0312 51.505 21.4375 51.7081 21.7891C51.919 22.1406 52.1925 22.4219 52.5284 22.6328C52.8644 22.8359 53.2745 22.9375 53.7589 22.9375C54.2042 22.9375 54.5909 22.8438 54.919 22.6562C55.255 22.4688 55.5284 22.207 55.7394 21.8711C55.9581 21.5352 56.1222 21.1328 56.2315 20.6641C56.3409 20.1875 56.3956 19.6641 56.3956 19.0938C56.3956 18.5781 56.3448 18.0898 56.2433 17.6289C56.1495 17.1602 55.9972 16.75 55.7862 16.3984C55.5753 16.0391 55.3019 15.7578 54.9659 15.5547C54.6378 15.3438 54.2354 15.2383 53.7589 15.2383C53.2823 15.2383 52.8761 15.3398 52.5401 15.543C52.2042 15.7461 51.9308 16.0234 51.7198 16.375C51.5089 16.7266 51.3565 17.1367 51.2628 17.6055C51.169 18.0742 51.1222 18.5703 51.1222 19.0938Z" fill="#080C2E"/>
<path d="M69.9289 22.7383C69.7179 23.1289 69.4601 23.4609 69.1554 23.7344C68.8586 24.0078 68.5265 24.2344 68.1594 24.4141C67.8 24.5859 67.4133 24.7148 66.9992 24.8008C66.5929 24.8789 66.175 24.918 65.7453 24.918C65.0265 24.918 64.3703 24.7891 63.7765 24.5312C63.1828 24.2734 62.6711 23.9023 62.2414 23.418C61.8195 22.9258 61.4914 22.3242 61.257 21.6133C61.0226 20.9023 60.9054 20.0898 60.9054 19.1758C60.9054 18.3164 61.0148 17.5117 61.2336 16.7617C61.4523 16.0117 61.7687 15.3594 62.1828 14.8047C62.6047 14.25 63.1203 13.8125 63.7297 13.4922C64.339 13.1719 65.0344 13.0117 65.8156 13.0117C66.7062 13.0117 67.4953 13.1836 68.1828 13.5273C68.8781 13.8711 69.4758 14.4336 69.9758 15.2148V14.9102C69.9758 14.3477 70.1281 13.9258 70.4328 13.6445C70.7453 13.3555 71.175 13.2109 71.7219 13.2109C72.05 13.2109 72.3273 13.2656 72.5539 13.375C72.7804 13.4766 72.9601 13.6328 73.0929 13.8438C73.2258 14.0469 73.3195 14.3008 73.3742 14.6055C73.4367 14.9023 73.4679 15.2422 73.4679 15.625V23.4766C73.4679 24.4297 73.3469 25.2812 73.1047 26.0312C72.8703 26.7812 72.5031 27.4141 72.0031 27.9297C71.5031 28.4453 70.8625 28.8359 70.0812 29.1016C69.3 29.375 68.3703 29.5117 67.2922 29.5117C66.5344 29.5117 65.8625 29.4766 65.2765 29.4062C64.6984 29.3438 64.1984 29.2461 63.7765 29.1133C63.3547 28.9648 63.0344 28.8008 62.8156 28.6211C62.6047 28.4414 62.4992 28.207 62.4992 27.918C62.4992 27.7539 62.5226 27.5977 62.5695 27.4492C62.6164 27.3008 62.6867 27.168 62.7804 27.0508C62.882 26.9414 63.0109 26.8516 63.1672 26.7812C63.3312 26.7188 63.5304 26.6875 63.7648 26.6875C64.0148 26.6875 64.2648 26.7031 64.5148 26.7344C64.7726 26.7656 65.0383 26.7969 65.3117 26.8281C65.5929 26.8672 65.8859 26.9023 66.1906 26.9336C66.5031 26.9648 66.839 26.9805 67.1984 26.9805C67.6281 26.9805 68.0109 26.9375 68.3469 26.8516C68.6828 26.7656 68.9679 26.6133 69.2023 26.3945C69.4367 26.1758 69.6164 25.8828 69.7414 25.5156C69.8664 25.1562 69.9289 24.6953 69.9289 24.1328V22.7383ZM69.9289 19.0938C69.9289 18.5234 69.8859 18.0039 69.8 17.5352C69.7219 17.0664 69.5851 16.668 69.3898 16.3398C69.1945 16.0039 68.9328 15.7461 68.6047 15.5664C68.2765 15.3789 67.8664 15.2852 67.3742 15.2852C66.8898 15.2852 66.4875 15.3828 66.1672 15.5781C65.8547 15.7734 65.6047 16.043 65.4172 16.3867C65.2297 16.7305 65.0969 17.1328 65.0187 17.5938C64.9484 18.0547 64.9133 18.5469 64.9133 19.0703C64.9133 20.2656 65.1242 21.1641 65.5461 21.7656C65.9679 22.3672 66.5812 22.668 67.3859 22.668C67.7609 22.6602 68.1008 22.5898 68.4054 22.457C68.7179 22.3164 68.9875 22.1016 69.214 21.8125C69.4406 21.5234 69.6164 21.1562 69.7414 20.7109C69.8664 20.2656 69.9289 19.7266 69.9289 19.0938Z" fill="#080C2E"/>
<path d="M74.5442 19.0938C74.5442 18.2656 74.677 17.4844 74.9426 16.75C75.2161 16.0078 75.6223 15.3594 76.1614 14.8047C76.7083 14.25 77.3879 13.8086 78.2004 13.4805C79.0208 13.1523 79.9817 12.9883 81.0833 12.9883C82.1379 12.9883 83.0715 13.1406 83.884 13.4453C84.6965 13.75 85.3801 14.1758 85.9348 14.7227C86.4895 15.2617 86.9114 15.9062 87.2004 16.6562C87.4895 17.3984 87.634 18.2109 87.634 19.0938C87.634 19.9141 87.4973 20.6914 87.2239 21.4258C86.9504 22.1523 86.5403 22.793 85.9934 23.3477C85.4465 23.8945 84.7629 24.332 83.9426 24.6602C83.1223 24.9805 82.1692 25.1406 81.0833 25.1406C80.0129 25.1406 79.0676 24.9883 78.2473 24.6836C77.4348 24.3711 76.7512 23.9453 76.1965 23.4062C75.6497 22.8594 75.2356 22.2188 74.9543 21.4844C74.6809 20.7422 74.5442 19.9453 74.5442 19.0938ZM78.4465 19.0938C78.4465 19.6094 78.4934 20.1016 78.5872 20.5703C78.6809 21.0312 78.8293 21.4375 79.0325 21.7891C79.2434 22.1406 79.5168 22.4219 79.8528 22.6328C80.1887 22.8359 80.5989 22.9375 81.0833 22.9375C81.5286 22.9375 81.9153 22.8438 82.2434 22.6562C82.5793 22.4688 82.8528 22.207 83.0637 21.8711C83.2825 21.5352 83.4465 21.1328 83.5559 20.6641C83.6653 20.1875 83.72 19.6641 83.72 19.0938C83.72 18.5781 83.6692 18.0898 83.5676 17.6289C83.4739 17.1602 83.3215 16.75 83.1106 16.3984C82.8997 16.0391 82.6262 15.7578 82.2903 15.5547C81.9622 15.3438 81.5598 15.2383 81.0833 15.2383C80.6067 15.2383 80.2004 15.3398 79.8645 15.543C79.5286 15.7461 79.2551 16.0234 79.0442 16.375C78.8333 16.7266 78.6809 17.1367 78.5872 17.6055C78.4934 18.0742 78.4465 18.5703 78.4465 19.0938Z" fill="#080C2E"/>
<path d="M92.6595 9.03906C92.6595 9.29688 92.6009 9.52734 92.4837 9.73047C92.3665 9.92578 92.2142 10.0898 92.0267 10.2227C91.8392 10.3555 91.6204 10.457 91.3704 10.5273C91.1283 10.5898 90.8783 10.6211 90.6204 10.6211C90.347 10.6211 90.0853 10.5859 89.8353 10.5156C89.5931 10.4453 89.3783 10.3438 89.1908 10.2109C89.0033 10.0703 88.8548 9.90234 88.7454 9.70703C88.6361 9.51172 88.5814 9.28906 88.5814 9.03906C88.5814 8.8125 88.6322 8.60547 88.7337 8.41797C88.8431 8.22266 88.9876 8.05469 89.1673 7.91406C89.347 7.77344 89.5619 7.66406 89.8119 7.58594C90.0619 7.50781 90.3353 7.46875 90.6322 7.46875C90.89 7.46875 91.14 7.50391 91.3822 7.57422C91.6322 7.64453 91.8509 7.74609 92.0384 7.87891C92.2259 8.01172 92.3744 8.17578 92.4837 8.37109C92.6009 8.56641 92.6595 8.78906 92.6595 9.03906ZM92.4837 22.6914C92.4837 23.4336 92.3314 24.0039 92.0267 24.4023C91.7298 24.8008 91.2337 25 90.5384 25C89.8822 25 89.4173 24.8008 89.1439 24.4023C88.8783 24.0039 88.7454 23.4336 88.7454 22.6914V15.5195C88.7454 14.7773 88.8783 14.207 89.1439 13.8086C89.4173 13.4102 89.8822 13.2109 90.5384 13.2109C91.2337 13.2109 91.7298 13.4102 92.0267 13.8086C92.3314 14.207 92.4837 14.7773 92.4837 15.5195V22.6914Z" fill="#080C2E"/>
<path d="M97.8724 19.0703C97.8724 19.5938 97.9114 20.082 97.9896 20.5352C98.0755 20.9883 98.2161 21.3867 98.4114 21.7305C98.6146 22.0664 98.8802 22.332 99.2083 22.5273C99.5442 22.7227 99.9583 22.8203 100.451 22.8203C100.904 22.8203 101.283 22.7266 101.588 22.5391C101.9 22.3438 102.15 22.0781 102.338 21.7422C102.525 21.3984 102.658 20.9961 102.736 20.5352C102.822 20.0742 102.865 19.5742 102.865 19.0352C102.865 18.6055 102.834 18.168 102.771 17.7227C102.709 17.2695 102.592 16.8594 102.42 16.4922C102.248 16.125 102.01 15.8242 101.705 15.5898C101.4 15.3555 101.002 15.2383 100.509 15.2383C100.017 15.2383 99.5989 15.3164 99.2552 15.4727C98.9192 15.6289 98.6458 15.8672 98.4349 16.1875C98.2317 16.5078 98.0872 16.9102 98.0013 17.3945C97.9153 17.8711 97.8724 18.4297 97.8724 19.0703ZM97.8607 15.5195C98.056 15.1055 98.306 14.7422 98.6107 14.4297C98.9153 14.1172 99.2513 13.8555 99.6185 13.6445C99.9857 13.4336 100.369 13.2773 100.767 13.1758C101.174 13.0664 101.576 13.0117 101.974 13.0117C102.693 13.0117 103.342 13.1719 103.92 13.4922C104.498 13.8125 104.99 14.25 105.396 14.8047C105.81 15.3516 106.127 16 106.346 16.75C106.564 17.4922 106.674 18.2891 106.674 19.1406C106.674 20.0234 106.556 20.832 106.322 21.5664C106.096 22.3008 105.771 22.9336 105.349 23.4648C104.935 23.9883 104.435 24.3984 103.849 24.6953C103.271 24.9922 102.627 25.1406 101.916 25.1406C101.041 25.1406 100.259 24.9375 99.5716 24.5312C98.8841 24.125 98.3138 23.5547 97.8607 22.8203V27.0391C97.8607 27.7812 97.7083 28.3516 97.4036 28.75C97.1067 29.1484 96.6107 29.3477 95.9153 29.3477C95.2591 29.3477 94.7942 29.1484 94.5208 28.75C94.2552 28.3516 94.1224 27.7812 94.1224 27.0391V15.5195C94.1224 14.7773 94.2552 14.207 94.5208 13.8086C94.7942 13.4102 95.2591 13.2109 95.9153 13.2109C96.6107 13.2109 97.1067 13.4102 97.4036 13.8086C97.7083 14.207 97.8607 14.7773 97.8607 15.5195Z" fill="#080C2E"/>
<path d="M110.797 16.3516C110.797 16.6562 110.93 16.8945 111.195 17.0664C111.461 17.2305 111.828 17.3672 112.297 17.4766C112.742 17.5781 113.199 17.6758 113.668 17.7695C114.137 17.8633 114.594 17.9727 115.039 18.0977C115.484 18.2148 115.902 18.3555 116.293 18.5195C116.683 18.6836 117.027 18.8906 117.324 19.1406C117.621 19.3828 117.855 19.6797 118.027 20.0312C118.199 20.375 118.285 20.7891 118.285 21.2734C118.285 21.8828 118.16 22.4258 117.91 22.9023C117.66 23.3711 117.305 23.7695 116.844 24.0977C116.391 24.4258 115.848 24.6797 115.215 24.8594C114.582 25.0391 113.883 25.1328 113.117 25.1406C112.391 25.1406 111.691 25.0938 111.019 25C110.348 24.9141 109.75 24.7773 109.226 24.5898C108.711 24.4023 108.297 24.1719 107.984 23.8984C107.672 23.6172 107.516 23.2891 107.516 22.9141C107.516 22.5859 107.621 22.332 107.832 22.1523C108.043 21.9727 108.312 21.8828 108.641 21.8828C108.766 21.8828 108.914 21.9062 109.086 21.9531C109.258 22 109.445 22.0586 109.648 22.1289C109.851 22.1992 110.066 22.2773 110.293 22.3633C110.527 22.4414 110.769 22.5117 111.019 22.5742C111.332 22.6602 111.652 22.7305 111.98 22.7852C112.316 22.832 112.66 22.8555 113.012 22.8555C113.23 22.8555 113.445 22.8359 113.656 22.7969C113.867 22.75 114.055 22.6836 114.219 22.5977C114.391 22.5039 114.531 22.3867 114.641 22.2461C114.75 22.1055 114.816 21.9336 114.84 21.7305C114.863 21.6836 114.883 21.6367 114.898 21.5898C114.914 21.543 114.922 21.4883 114.922 21.4258C114.922 21.207 114.82 21.0117 114.617 20.8398C114.422 20.668 114.144 20.5312 113.785 20.4297C113.183 20.2891 112.609 20.1602 112.062 20.043C111.516 19.9258 111.008 19.8008 110.539 19.668C110.078 19.5352 109.656 19.3828 109.273 19.2109C108.898 19.0391 108.578 18.8281 108.312 18.5781C108.055 18.3281 107.851 18.0273 107.703 17.6758C107.562 17.3242 107.492 16.8984 107.492 16.3984C107.492 15.8594 107.613 15.3789 107.855 14.957C108.105 14.5273 108.461 14.168 108.922 13.8789C109.383 13.5898 109.941 13.3711 110.598 13.2227C111.254 13.0664 111.996 12.9883 112.824 12.9883C114.308 12.9883 115.437 13.168 116.211 13.5273C116.992 13.8789 117.383 14.3398 117.383 14.9102C117.383 15.2305 117.277 15.4766 117.066 15.6484C116.855 15.8125 116.601 15.8945 116.305 15.8945C116.148 15.8945 115.984 15.8672 115.812 15.8125C115.648 15.75 115.449 15.6836 115.215 15.6133C114.98 15.5352 114.699 15.4688 114.371 15.4141C114.051 15.3516 113.652 15.3203 113.176 15.3203C112.816 15.3203 112.488 15.3359 112.191 15.3672C111.902 15.3984 111.652 15.4531 111.441 15.5312C111.238 15.6094 111.078 15.7148 110.961 15.8477C110.851 15.9805 110.797 16.1484 110.797 16.3516Z" fill="#080C2E"/>
<path d="M123.041 20.6523C123.041 21.0195 123.088 21.3398 123.182 21.6133C123.283 21.8867 123.42 22.1172 123.592 22.3047C123.764 22.4844 123.963 22.6211 124.189 22.7148C124.424 22.8008 124.674 22.8438 124.939 22.8438C125.252 22.8438 125.553 22.7969 125.842 22.7031C126.131 22.6094 126.385 22.4648 126.604 22.2695C126.83 22.0742 127.01 21.8281 127.143 21.5312C127.275 21.2344 127.342 20.8867 127.342 20.4883V15.5195C127.342 14.7773 127.475 14.207 127.74 13.8086C128.014 13.4102 128.479 13.2109 129.135 13.2109C129.83 13.2109 130.326 13.4102 130.623 13.8086C130.928 14.207 131.08 14.7773 131.08 15.5195V22.6914C131.08 23.4336 130.928 24.0039 130.623 24.4023C130.326 24.8008 129.83 25 129.135 25C128.479 25 128.014 24.8008 127.74 24.4023C127.475 24.0039 127.342 23.4336 127.342 22.6914C127.178 23.0508 126.963 23.3789 126.697 23.6758C126.439 23.9727 126.135 24.2305 125.783 24.4492C125.439 24.6602 125.057 24.8242 124.635 24.9414C124.221 25.0586 123.771 25.1172 123.287 25.1172C122.764 25.1172 122.26 25.0273 121.775 24.8477C121.299 24.6602 120.877 24.3867 120.51 24.0273C120.143 23.6602 119.85 23.207 119.631 22.668C119.412 22.1289 119.303 21.5 119.303 20.7812V15.5195C119.303 14.7773 119.436 14.207 119.701 13.8086C119.975 13.4102 120.439 13.2109 121.096 13.2109C121.791 13.2109 122.287 13.4102 122.584 13.8086C122.889 14.207 123.041 14.7773 123.041 15.5195V20.6523Z" fill="#080C2E"/>
<path d="M132.777 15.5195C132.777 14.7773 132.91 14.207 133.176 13.8086C133.449 13.4102 133.914 13.2109 134.57 13.2109C135.266 13.2109 135.762 13.4102 136.059 13.8086C136.363 14.207 136.516 14.7773 136.516 15.5195C136.672 15.1445 136.883 14.8047 137.149 14.5C137.422 14.1875 137.731 13.9219 138.074 13.7031C138.426 13.4844 138.805 13.3164 139.211 13.1992C139.617 13.0742 140.039 13.0117 140.477 13.0117C140.883 13.0117 141.281 13.0664 141.672 13.1758C142.07 13.2773 142.438 13.4453 142.774 13.6797C143.117 13.9062 143.418 14.1953 143.676 14.5469C143.934 14.8984 144.133 15.3203 144.274 15.8125C144.516 15.2891 144.801 14.8477 145.129 14.4883C145.457 14.1289 145.813 13.8398 146.195 13.6211C146.578 13.4023 146.977 13.2461 147.391 13.1523C147.813 13.0586 148.234 13.0117 148.656 13.0117C149.156 13.0117 149.633 13.1016 150.086 13.2812C150.547 13.4609 150.949 13.7344 151.293 14.1016C151.645 14.4609 151.922 14.918 152.125 15.4727C152.336 16.0195 152.441 16.6602 152.441 17.3945V22.6914C152.441 23.4336 152.289 24.0039 151.984 24.4023C151.688 24.8008 151.191 25 150.496 25C149.84 25 149.375 24.8008 149.102 24.4023C148.836 24.0039 148.703 23.4336 148.703 22.6914V17.5586C148.703 17.207 148.656 16.8945 148.563 16.6211C148.469 16.3398 148.336 16.1055 148.164 15.918C148 15.7227 147.805 15.5781 147.578 15.4844C147.352 15.3828 147.109 15.332 146.852 15.332C146.531 15.332 146.227 15.3828 145.938 15.4844C145.649 15.5859 145.395 15.7422 145.176 15.9531C144.965 16.1641 144.793 16.4336 144.66 16.7617C144.535 17.0898 144.473 17.4844 144.473 17.9453V22.6914C144.473 23.4336 144.32 24.0039 144.016 24.4023C143.719 24.8008 143.223 25 142.527 25C141.871 25 141.406 24.8008 141.133 24.4023C140.867 24.0039 140.734 23.4336 140.734 22.6914V17.7812C140.734 16.9766 140.566 16.3672 140.231 15.9531C139.902 15.5391 139.453 15.332 138.883 15.332C138.547 15.332 138.234 15.3867 137.945 15.4961C137.656 15.6055 137.406 15.7656 137.195 15.9766C136.984 16.1875 136.816 16.4492 136.691 16.7617C136.574 17.0742 136.516 17.4336 136.516 17.8398V22.6914C136.516 23.4336 136.363 24.0039 136.059 24.4023C135.762 24.8008 135.266 25 134.57 25C133.914 25 133.449 24.8008 133.176 24.4023C132.91 24.0039 132.777 23.4336 132.777 22.6914V15.5195Z" fill="#080C2E"/>
<path d="M17.9756 23C14.6619 23 11.9756 20.3137 11.9756 17C11.9756 13.6863 14.6619 11 17.9756 11C21.2893 11 23.9756 13.6863 23.9756 17C23.9756 20.3137 21.2893 23 17.9756 23Z" fill="#080C2E"/>
<path d="M6.35181 19.0496C4.61306 19.3562 3.42124 21.0358 4.08869 22.6704C5.02053 24.9524 6.50716 26.9856 8.43447 28.5744C11.1904 30.8461 14.6664 32.06 18.2374 31.9977C21.8084 31.9354 25.24 30.6009 27.915 28.2343C29.7856 26.5793 31.2004 24.4954 32.0521 22.1823C32.6621 20.5254 31.4123 18.8884 29.6639 18.6427C27.9156 18.397 26.3458 19.6696 25.4822 21.2096C25.0141 22.0443 24.4064 22.8016 23.6784 23.4457C22.1436 24.8036 20.1747 25.5692 18.1259 25.605C16.077 25.6407 14.0826 24.9443 12.5014 23.6408C11.7513 23.0225 11.1176 22.2869 10.6206 21.469C9.70381 19.9601 8.09056 18.743 6.35181 19.0496Z" fill="#080C2E"/>
<path d="M32.8596 18.8745C32.9362 18.2604 32.9756 17.6348 32.9756 17C32.9756 8.71573 26.2599 2 17.9756 2C9.69132 2 2.97559 8.71573 2.97559 17C2.97559 17.8147 3.04054 18.6142 3.16555 19.3937C3.85453 18.4505 4.92985 17.7772 6.09135 17.5724C7.34804 17.3508 8.49017 17.6556 9.45586 18.2253C9.39881 17.8251 9.36929 17.416 9.36929 17C9.36929 12.2469 13.2225 8.3937 17.9756 8.3937C22.7287 8.3937 26.5819 12.2469 26.5819 17C26.5819 17.3134 26.5651 17.6229 26.5325 17.9276C27.4778 17.3243 28.6088 16.9796 29.8727 17.1573C31.0403 17.3214 32.1381 17.9564 32.8596 18.8745Z" fill="#080C2E"/>
</svg>
