<svg width="46" height="46" viewBox="0 0 46 46" fill="none" xmlns="http://www.w3.org/2000/svg">
<path d="M17.1925 42.1666H28.6925C38.2758 42.1666 42.1092 38.3333 42.1092 28.75V17.25C42.1092 7.66665 38.2758 3.83331 28.6925 3.83331H17.1925C7.60915 3.83331 3.77582 7.66665 3.77582 17.25V28.75C3.77582 38.3333 7.60915 42.1666 17.1925 42.1666Z" stroke="#640EF1" stroke-width="3" stroke-linecap="round" stroke-linejoin="round"/>
<path d="M3.77582 24.3417L15.2758 24.3033C16.7133 24.3033 18.3233 25.3958 18.86 26.7375L21.045 32.2575C21.5433 33.5033 22.3292 33.5033 22.8275 32.2575L27.2167 21.1217C27.6383 20.0483 28.4242 20.01 28.9608 21.0258L30.9542 24.8017C31.5483 25.9325 33.0817 26.8525 34.3467 26.8525H42.1283" stroke="#640EF1" stroke-width="3" stroke-linecap="round" stroke-linejoin="round"/>
</svg>
